<?xml version="1.0" standalone="no"?>
<!DOCTYPE svg PUBLIC "-//W3C//DTD SVG 20010904//EN"
 "http://www.w3.org/TR/2001/REC-SVG-20010904/DTD/svg10.dtd">
<svg version="1.0" xmlns="http://www.w3.org/2000/svg"
 width="260.000000pt" height="260.000000pt" viewBox="0 0 260.000000 260.000000"
 preserveAspectRatio="xMidYMid meet">
<metadata>
Created by potrace 1.11, written by Peter Selinger 2001-2013
</metadata>
<g transform="translate(0.000000,260.000000) scale(0.100000,-0.100000)"
fill="#000000" stroke="none">
<path d="M0 1300 l0 -1300 1300 0 1300 0 0 1300 0 1300 -1300 0 -1300 0 0
-1300z m1015 810 c95 -14 172 -54 210 -108 l30 -44 0 -611 0 -612 -23 -43
c-35 -66 -88 -119 -150 -149 -77 -38 -200 -40 -279 -4 -62 27 -135 102 -166
169 -22 46 -22 57 -27 637 l-5 590 -26 56 c-27 58 -70 98 -124 117 -40 14 462
16 560 2z m792 -12 c74 -21 128 -62 155 -117 l23 -46 0 -595 0 -595 -27 -52
c-35 -66 -85 -116 -151 -150 -46 -24 -63 -28 -142 -28 -75 0 -98 4 -140 25
-64 31 -124 92 -156 155 l-24 50 -5 590 -5 590 -23 51 c-28 62 -76 111 -128
130 -35 13 -7 14 266 11 234 -3 317 -7 357 -19z"/>
<path d="M955 887 c-27 -27 -35 -43 -35 -72 0 -29 8 -45 35 -72 32 -32 40 -35
76 -30 48 6 68 21 86 65 27 65 -13 129 -86 139 -36 5 -44 2 -76 -30z"/>
<path d="M1710 907 c-14 -7 -33 -29 -43 -50 -33 -66 5 -134 82 -144 36 -5 44
-2 76 30 48 48 49 95 1 143 -37 37 -72 43 -116 21z"/>
</g>
</svg>
